<svg id="Layer_1" enable-background="new 0 0 256 256" height="512" viewBox="0 0 256 256" width="512" xmlns="http://www.w3.org/2000/svg"><g><path d="m202.534 219.831c-.604 0-1.211-.218-1.691-.66l-21.643-19.906h-102.4l-21.643 19.906c-1.018.938-2.599.868-3.532-.147-.935-1.017-.869-2.598.147-3.532l22.36-20.566c.461-.425 1.065-.66 1.692-.66h104.35c.627 0 1.231.235 1.692.66l22.36 20.566c1.017.935 1.082 2.516.147 3.532-.491.536-1.164.807-1.839.807z" fill="#ebe7f2"/><g fill="#846f75"><path d="m202.377 80.06-20.793-14.748c-2.196-1.558-3.508-4.096-3.508-6.789v-14.877c0-7.346-5.977-13.322-13.323-13.322h-73.506c-7.347 0-13.323 5.977-13.323 13.322v14.877c0 2.693-1.312 5.231-3.508 6.789l-20.793 14.748c-3.516 2.493-5.615 6.556-5.615 10.867v121.428c0 7.346 5.977 13.322 13.323 13.322h133.338c7.347 0 13.323-5.977 13.323-13.322v-121.428c0-4.312-2.099-8.374-5.615-10.867zm.615 132.294c0 4.589-3.733 8.322-8.323 8.322h-133.338c-4.59 0-8.323-3.733-8.323-8.322v-121.427c0-2.693 1.312-5.231 3.508-6.789l20.793-14.748c3.516-2.493 5.615-6.556 5.615-10.867v-14.877c0-4.589 3.733-8.322 8.323-8.322h73.506c4.59 0 8.323 3.733 8.323 8.322v14.877c0 4.312 2.1 8.374 5.615 10.867l20.793 14.748c2.196 1.558 3.508 4.096 3.508 6.789z"/><path d="m150.073 43.437h-44.146c-6.187 0-11.219 5.033-11.219 11.219s5.032 11.218 11.219 11.218h44.146c6.187 0 11.219-5.032 11.219-11.218s-5.032-11.219-11.219-11.219zm0 17.436h-44.146c-3.429 0-6.219-2.789-6.219-6.218s2.79-6.219 6.219-6.219h44.146c3.429 0 6.219 2.79 6.219 6.219s-2.79 6.218-6.219 6.218z"/></g><g fill="#a58bc9"><path d="m166.203 185.056h-76.406c-1.882 0-3.624-1.018-4.548-2.656l-3.944-6.984h-4.396c-4.078 0-7.396-3.318-7.396-7.396s3.317-7.396 7.396-7.396h102.182c4.078 0 7.396 3.318 7.396 7.396s-3.317 7.396-7.396 7.396h-4.396l-3.945 6.986c-.923 1.636-2.665 2.654-4.547 2.654zm-89.294-19.434c-1.321 0-2.396 1.075-2.396 2.396s1.074 2.396 2.396 2.396h5.854c.901 0 1.733.485 2.177 1.271l4.663 8.257c.04.07.113.113.193.113h76.406c.08 0 .153-.043.192-.111l4.664-8.259c.443-.785 1.275-1.271 2.177-1.271h5.854c1.321 0 2.396-1.075 2.396-2.396s-1.074-2.396-2.396-2.396z"/><path d="m139.419 102.584v-2.359c0-6.297-5.122-11.419-11.419-11.419s-11.419 5.122-11.419 11.419v2.359c-23.007 5.214-40.241 25.812-40.241 50.373 0 1.381 1.119 2.5 2.5 2.5s2.5-1.119 2.5-2.5c0-25.729 20.932-46.66 46.66-46.66s46.66 20.932 46.66 46.66c0 1.381 1.119 2.5 2.5 2.5s2.5-1.119 2.5-2.5c0-24.561-17.234-45.159-40.241-50.373zm-17.838-.874v-1.485c0-3.539 2.88-6.419 6.419-6.419s6.419 2.88 6.419 6.419v1.485c-2.105-.262-4.244-.413-6.419-.413s-4.314.151-6.419.413z"/></g></g></svg>